<svg width="40" height="40" viewBox="0 0 40 40" fill="none" xmlns="http://www.w3.org/2000/svg">
<path d="M6.41406 14.3672C6.17079 13.2714 6.20815 12.1319 6.52265 11.0544C6.83716 9.97688 7.41864 8.99623 8.21317 8.20336C9.00771 7.41048 9.98957 6.83106 11.0677 6.51881C12.1459 6.20656 13.2854 6.1716 14.3807 6.41715C14.9836 5.47432 15.8141 4.69842 16.7956 4.16096C17.7772 3.62351 18.8783 3.3418 19.9974 3.3418C21.1165 3.3418 22.2176 3.62351 23.1991 4.16096C24.1807 4.69842 25.0112 5.47432 25.6141 6.41715C26.711 6.17053 27.8525 6.20534 28.9324 6.51834C30.0123 6.83135 30.9954 7.41239 31.7905 8.20741C32.5855 9.00243 33.1665 9.98561 33.4795 11.0655C33.7925 12.1454 33.8274 13.2869 33.5807 14.3838C34.5236 14.9867 35.2995 15.8172 35.8369 16.7987C36.3744 17.7803 36.6561 18.8814 36.6561 20.0005C36.6561 21.1196 36.3744 22.2207 35.8369 23.2022C35.2995 24.1838 34.5236 25.0143 33.5807 25.6172C33.8263 26.7124 33.7913 27.852 33.4791 28.9301C33.1668 30.0083 32.5874 30.9902 31.7945 31.7847C31.0017 32.5792 30.021 33.1607 28.9435 33.4752C27.866 33.7897 26.7265 33.8271 25.6307 33.5838C25.0287 34.5303 24.1975 35.3095 23.2143 35.8494C22.231 36.3892 21.1274 36.6722 20.0057 36.6722C18.884 36.6722 17.7804 36.3892 16.7972 35.8494C15.8139 35.3095 14.9828 34.5303 14.3807 33.5838C13.2854 33.8294 12.1459 33.7944 11.0677 33.4822C9.98957 33.1699 9.00771 32.5905 8.21317 31.7976C7.41864 31.0047 6.83716 30.0241 6.52265 28.9466C6.20815 27.8691 6.17079 26.7296 6.41406 25.6338C5.46399 25.0326 4.68142 24.2008 4.13914 23.2158C3.59686 22.2309 3.3125 21.1248 3.3125 20.0005C3.3125 18.8761 3.59686 17.7701 4.13914 16.7851C4.68142 15.8002 5.46399 14.9684 6.41406 14.3672Z" stroke="#FFD54A" stroke-width="2" stroke-linecap="round" stroke-linejoin="round"/>
<path d="M15 26.667H23.3333" stroke="#FFD54A" stroke-width="2" stroke-linecap="round" stroke-linejoin="round"/>
<path d="M15 19.9997H23.3333C24.2174 19.9997 25.0652 19.6485 25.6904 19.0234C26.3155 18.3982 26.6667 17.5504 26.6667 16.6663C26.6667 15.7823 26.3155 14.9344 25.6904 14.3093C25.0652 13.6842 24.2174 13.333 23.3333 13.333H18.3333V28.333" stroke="#FFD54A" stroke-width="2" stroke-linecap="round" stroke-linejoin="round"/>
</svg>
