<svg width="40" height="40" viewBox="0 0 40 40" fill="none" xmlns="http://www.w3.org/2000/svg">
<path d="M8.32812 30H4.99479C3.99479 30 3.32812 29.3333 3.32812 28.3333V11.6667C3.32812 10.6667 3.99479 10 4.99479 10H21.6615C22.6615 10 23.3281 10.6667 23.3281 11.6667V30" stroke="#FFD54A" stroke-width="2" stroke-linecap="round" stroke-linejoin="round"/>
<path d="M23.3281 15H29.9948L36.6615 21.6667V28.3333C36.6615 29.3333 35.9948 30 34.9948 30H31.6615" stroke="#FFD54A" stroke-width="2" stroke-linecap="round" stroke-linejoin="round"/>
<path d="M11.6615 33.3327C13.5024 33.3327 14.9948 31.8403 14.9948 29.9993C14.9948 28.1584 13.5024 26.666 11.6615 26.666C9.82051 26.666 8.32812 28.1584 8.32812 29.9993C8.32812 31.8403 9.82051 33.3327 11.6615 33.3327Z" stroke="#FFD54A" stroke-width="2" stroke-linecap="round" stroke-linejoin="round"/>
<path d="M25 30H15" stroke="#FFD54A" stroke-width="2" stroke-linecap="round" stroke-linejoin="round"/>
<path d="M28.3333 33.3337C30.1743 33.3337 31.6667 31.8413 31.6667 30.0003C31.6667 28.1594 30.1743 26.667 28.3333 26.667C26.4924 26.667 25 28.1594 25 30.0003C25 31.8413 26.4924 33.3337 28.3333 33.3337Z" stroke="#FFD54A" stroke-width="2" stroke-linecap="round" stroke-linejoin="round"/>
</svg>
