<svg width="40" height="40" viewBox="0 0 40 40" fill="none" xmlns="http://www.w3.org/2000/svg">
<path d="M39.6763 17.8044L31.5462 11.8594C31.3749 11.7342 31.1682 11.6667 30.9559 11.6667H20.8333H13.4999C12.9476 11.6667 12.4999 12.1144 12.4999 12.6667V17.6562H10.8854L9.85812 2.75883C9.82977 2.34914 9.4893 2.03125 9.07867 2.03125H4.98383C4.5732 2.03125 4.23281 2.34906 4.20437 2.75883L3.17703 17.6562H0.78125C0.349766 17.6562 0 18.006 0 18.4375V37.1875C0 37.6189 0.349766 37.9688 0.78125 37.9688H39.2188C39.6502 37.9688 40 37.6189 40 37.1875V18.4375C40 18.1866 39.8796 17.9512 39.6763 17.8044ZM4.85109 16.0937L4.95883 14.5312L5.71305 3.59383H8.34945L9.31914 17.6562H4.74336L4.85109 16.0937ZM12.4998 20.7813H8.14914C7.71781 20.7813 7.36789 21.1312 7.36789 21.5626C7.36789 21.994 7.71781 22.3438 8.14914 22.3438H12.4998V23.9062C12.4998 24.3377 12.4998 25.4688 12.4998 25.4688V27.0312H10.412C9.98062 27.0312 9.6307 27.3811 9.6307 27.8125C9.6307 28.244 9.98062 28.5938 10.412 28.5938H12.4998V30.1562V31.7187V33.281H8.14914C7.71781 33.281 7.36789 33.6309 7.36789 34.0623C7.36789 34.4937 7.71781 34.8435 8.14914 34.8435H12.4998V36.4062H1.5625V19.2187H3.90336L3.90625 19.2188H10.1561L10.1607 19.2187H12.4998V20.7813ZM38.4375 36.4062H14.0623V18.4374V13.7161C14.3236 13.5826 22.7083 13.7161 22.7083 13.7161H31.0303C31.2407 13.7161 31.4457 13.7824 31.6162 13.9057L38.4375 18.8366V36.4062Z" fill="#FFD54A"/>
<path d="M23.1252 23.9061H20C19.5685 23.9061 19.2188 24.256 19.2188 24.6874V27.8122C19.2188 28.2436 19.5685 28.5935 20 28.5935H23.1252C23.5566 28.5935 23.9064 28.2436 23.9064 27.8122V24.6874C23.9064 24.256 23.5566 23.9061 23.1252 23.9061ZM22.3439 27.031H20.7812V25.4686H22.3439V27.031Z" fill="#FFD54A"/>
<path d="M28.5938 24.6874V27.8122C28.5938 28.2436 28.9437 28.5935 29.375 28.5935H32.5002C32.9316 28.5935 33.2814 28.2436 33.2814 27.8122V24.6874C33.2814 24.256 32.9316 23.9061 32.5002 23.9061H29.375C28.9437 23.9061 28.5938 24.256 28.5938 24.6874ZM30.1562 25.4686H31.7189V27.031H30.1562V25.4686Z" fill="#FFD54A"/>
</svg>
