<svg width="40" height="40" viewBox="0 0 40 40" fill="none" xmlns="http://www.w3.org/2000/svg">
<path d="M6.67188 8.33398V6.66732C6.67188 5.78326 7.02306 4.93542 7.64819 4.31029C8.27331 3.68517 9.12115 3.33398 10.0052 3.33398H24.1719L33.3385 12.5007V33.334C33.3385 34.218 32.9874 35.0659 32.3622 35.691C31.7371 36.3161 30.8893 36.6673 30.0052 36.6673H6.67188" stroke="#FFD54A" stroke-width="2" stroke-linecap="round" stroke-linejoin="round"/>
<path d="M23.3281 3.33398V13.334H33.3281" stroke="#FFD54A" stroke-width="2" stroke-linecap="round" stroke-linejoin="round"/>
<path d="M14.9948 21.666H4.99479C4.07432 21.666 3.32812 22.4122 3.32812 23.3327V28.3327C3.32812 29.2532 4.07432 29.9993 4.99479 29.9993H14.9948C15.9153 29.9993 16.6615 29.2532 16.6615 28.3327V23.3327C16.6615 22.4122 15.9153 21.666 14.9948 21.666Z" stroke="#FFD54A" stroke-width="2" stroke-linecap="round" stroke-linejoin="round"/>
<path d="M13.3385 21.6667V18.3333C13.3385 17.4493 12.9874 16.6014 12.3622 15.9763C11.7371 15.3512 10.8893 15 10.0052 15C9.12115 15 8.27331 15.3512 7.64819 15.9763C7.02306 16.6014 6.67188 17.4493 6.67188 18.3333V21.6667" stroke="#FFD54A" stroke-width="2" stroke-linecap="round" stroke-linejoin="round"/>
</svg>
