<svg width="40" height="40" viewBox="0 0 40 40" fill="none" xmlns="http://www.w3.org/2000/svg">
<circle cx="20" cy="20" r="20" fill="#F1F4F8"/>
<path d="M17.125 29.375C17.4702 29.375 17.75 29.0952 17.75 28.75C17.75 28.4048 17.4702 28.125 17.125 28.125C16.7798 28.125 16.5 28.4048 16.5 28.75C16.5 29.0952 16.7798 29.375 17.125 29.375Z" stroke="black" stroke-linecap="round" stroke-linejoin="round"/>
<path d="M24.625 29.375C24.9702 29.375 25.25 29.0952 25.25 28.75C25.25 28.4048 24.9702 28.125 24.625 28.125C24.2798 28.125 24 28.4048 24 28.75C24 29.0952 24.2798 29.375 24.625 29.375Z" stroke="black" stroke-linecap="round" stroke-linejoin="round"/>
<path d="M10.875 12.5H13.8295L15.8091 23.1002C15.8766 23.4646 16.0616 23.792 16.3317 24.025C16.6018 24.258 16.9397 24.3818 17.2864 24.3747H24.4659C24.8126 24.3818 25.1505 24.258 25.4206 24.025C25.6906 23.792 25.8756 23.4646 25.9432 23.1002L27.125 16.4582H14.5682" stroke="black" stroke-linecap="round" stroke-linejoin="round"/>
</svg>
