<svg width="48" height="48" viewBox="0 0 48 48" fill="none" xmlns="http://www.w3.org/2000/svg">
<circle cx="24" cy="24" r="24" fill="#F1F4F8"/>
<path fill-rule="evenodd" clip-rule="evenodd" d="M17.5 22C17.5 18.3048 20.405 15.5 24 15.5C27.595 15.5 30.5 18.3048 30.5 22C30.5 25.1599 28.8415 27.794 27.1309 29.6664C26.2795 30.5983 25.4268 31.3284 24.7871 31.8252C24.4676 32.0733 24.2022 32.2625 24.018 32.3888L24 32.4011L23.982 32.3888C23.7978 32.2625 23.5324 32.0733 23.2129 31.8252C22.5732 31.3284 21.7205 30.5983 20.8691 29.6664C19.1585 27.794 17.5 25.1599 17.5 22ZM23.7369 33.4252C23.7371 33.4253 23.7373 33.4254 24 33L23.7373 33.4254C23.8983 33.5249 24.1017 33.5249 24.2627 33.4254L24 33C24.2627 33.4254 24.2629 33.4253 24.2631 33.4252L24.2636 33.4248L24.2652 33.4239L24.2701 33.4208L24.2875 33.4099C24.3024 33.4005 24.3236 33.3869 24.3509 33.3691C24.4055 33.3337 24.4842 33.2817 24.5836 33.2135C24.7822 33.0773 25.0637 32.8766 25.4004 32.615C26.0732 32.0925 26.9705 31.3245 27.8691 30.3409C29.6585 28.3824 31.5 25.5165 31.5 22C31.5 17.7423 28.137 14.5 24 14.5C19.863 14.5 16.5 17.7423 16.5 22C16.5 25.5165 18.3415 28.3824 20.1309 30.3409C21.0295 31.3245 21.9268 32.0925 22.5996 32.615C22.9363 32.8766 23.2178 33.0773 23.4164 33.2135C23.5158 33.2817 23.5945 33.3337 23.6491 33.3691C23.6764 33.3869 23.6976 33.4005 23.7125 33.4099L23.7299 33.4208L23.7348 33.4239L23.7364 33.4248L23.7369 33.4252ZM21.5 22C21.5 20.6193 22.6193 19.5 24 19.5C25.3807 19.5 26.5 20.6193 26.5 22C26.5 23.3807 25.3807 24.5 24 24.5C22.6193 24.5 21.5 23.3807 21.5 22ZM24 18.5C22.067 18.5 20.5 20.067 20.5 22C20.5 23.933 22.067 25.5 24 25.5C25.933 25.5 27.5 23.933 27.5 22C27.5 20.067 25.933 18.5 24 18.5Z" fill="black"/>
</svg>
