<svg width="48" height="48" viewBox="0 0 48 48" fill="none" xmlns="http://www.w3.org/2000/svg">
<circle cx="24" cy="24" r="24" fill="#F1F4F8"/>
<path d="M27.0475 17C28.0242 17.1906 28.9219 17.6683 29.6256 18.3719C30.3292 19.0756 30.8069 19.9733 30.9975 20.95M27.0475 13C29.0768 13.2254 30.9691 14.1342 32.4137 15.577C33.8584 17.0198 34.7695 18.911 34.9975 20.94M33.9975 28.92V31.92C33.9986 32.1985 33.9416 32.4742 33.83 32.7293C33.7184 32.9845 33.5548 33.2136 33.3496 33.4019C33.1443 33.5901 32.9021 33.7335 32.6382 33.8227C32.3744 33.9119 32.0949 33.9451 31.8175 33.92C28.7403 33.5856 25.7845 32.5341 23.1875 30.85C20.7713 29.3147 18.7228 27.2662 17.1875 24.85C15.4975 22.2412 14.4457 19.271 14.1175 16.18C14.0925 15.9035 14.1254 15.6248 14.214 15.3616C14.3026 15.0985 14.4451 14.8567 14.6323 14.6516C14.8195 14.4466 15.0473 14.2827 15.3013 14.1705C15.5553 14.0583 15.8298 14.0003 16.1075 14H19.1075C19.5928 13.9952 20.0633 14.1671 20.4313 14.4835C20.7992 14.8 21.0396 15.2394 21.1075 15.72C21.2341 16.6801 21.4689 17.6227 21.8075 18.53C21.942 18.8879 21.9712 19.2769 21.8914 19.6509C21.8116 20.0248 21.6264 20.3681 21.3575 20.64L20.0875 21.91C21.511 24.4135 23.5839 26.4864 26.0875 27.91L27.3575 26.64C27.6294 26.3711 27.9726 26.1858 28.3466 26.1061C28.7206 26.0263 29.1096 26.0555 29.4675 26.19C30.3748 26.5286 31.3174 26.7634 32.2775 26.89C32.7633 26.9585 33.2069 27.2032 33.524 27.5775C33.8412 27.9518 34.0097 28.4296 33.9975 28.92Z" stroke="black" stroke-linecap="round" stroke-linejoin="round"/>
</svg>
