<svg width="40" height="40" viewBox="0 0 40 40" fill="none" xmlns="http://www.w3.org/2000/svg">
<path d="M6.66699 23.3333L6.66699 31.3333C6.66699 32.4379 7.56242 33.3333 8.66699 33.3333L31.3337 33.3333C32.4382 33.3333 33.3337 32.4379 33.3337 31.3333L33.3337 23.3333M6.66699 23.3333L6.66699 8.66664C6.66699 7.56207 7.56242 6.66665 8.66699 6.66664L11.667 6.66664M6.66699 23.3333L13.3337 23.3333C14.2541 23.3333 15.0003 24.0795 15.0003 25V25C15.0003 25.9205 15.7465 26.6666 16.667 26.6666L23.3337 26.6666C24.2541 26.6666 25.0003 25.9205 25.0003 25V25C25.0003 24.0795 25.7465 23.3333 26.667 23.3333L33.3337 23.3333M33.3337 23.3333L33.3337 8.66664C33.3337 7.56207 32.4382 6.66664 31.3337 6.66664L28.3337 6.66664M20.0003 18.3333L15.0003 13.3333M20.0003 18.3333L25.0003 13.3333M20.0003 18.3333L20.0003 4.99998" stroke="#FFD54A" stroke-width="2" stroke-linecap="round" stroke-linejoin="round"/>
</svg>
