<svg width="40" height="40" viewBox="0 0 40 40" fill="none" xmlns="http://www.w3.org/2000/svg">
<path d="M3.32813 35.0001C3.32798 32.434 4.06835 29.9223 5.46037 27.7666C6.85239 25.6108 8.83691 23.9025 11.1758 22.8468C13.5147 21.791 16.1085 21.4326 18.6461 21.8145C21.1836 22.1965 23.557 23.3026 25.4815 25.0001" stroke="#FFD54A" stroke-width="2" stroke-linecap="round" stroke-linejoin="round"/>
<path d="M16.6615 21.6667C21.2638 21.6667 24.9948 17.9357 24.9948 13.3333C24.9948 8.73096 21.2638 5 16.6615 5C12.0591 5 8.32812 8.73096 8.32812 13.3333C8.32812 17.9357 12.0591 21.6667 16.6615 21.6667Z" stroke="#FFD54A" stroke-width="2" stroke-linecap="round" stroke-linejoin="round"/>
<path d="M26.6719 31.6673L30.0052 35.0007L36.6719 28.334" stroke="#FFD54A" stroke-width="2" stroke-linecap="round" stroke-linejoin="round"/>
</svg>
