<svg width="16" height="16" viewBox="0 0 16 16" fill="none" xmlns="http://www.w3.org/2000/svg">
<circle cx="8" cy="8" r="7.5" fill="white" stroke="black"/>
<path d="M7.28 9.79C7.28 8.22 9.04 8 9.04 6.85C9.04 6.21 8.51 5.77 7.61 5.77C6.8 5.77 6.22 6.05 5.82 6.56L5.09 6.04C5.64 5.33 6.51 4.92 7.68 4.92C9.12 4.92 10.05 5.59 10.05 6.7C10.05 8.37 8.28 8.48 8.28 9.79H7.28ZM7.79 12.06C7.41 12.06 7.14 11.77 7.14 11.42C7.14 11.06 7.41 10.78 7.79 10.78C8.16 10.78 8.43 11.06 8.43 11.42C8.43 11.77 8.16 12.06 7.79 12.06Z" fill="black"/>
</svg>
